<svg width="18" height="18" viewBox="0 0 18 18" fill="none" xmlns="http://www.w3.org/2000/svg">
<path d="M9.00001 7.79053C11.0813 7.79053 12.7688 6.15928 12.7688 4.13428C12.7688 2.10928 11.0813 0.478027 9.00001 0.478027C6.91876 0.478027 5.23126 2.10928 5.23126 4.13428C5.23126 6.15928 6.91876 7.79053 9.00001 7.79053ZM9.00001 1.77178C10.3781 1.77178 11.5031 2.84053 11.5031 4.1624C11.5031 5.48428 10.3781 6.55303 9.00001 6.55303C7.62189 6.55303 6.49689 5.48428 6.49689 4.1624C6.49689 2.84053 7.62189 1.77178 9.00001 1.77178Z" fill="#DEE4EE"/>
<path d="M10.8281 9.05615H7.17189C4.16251 9.05615 1.71564 11.5312 1.71564 14.5405V16.8749C1.71564 17.2124 1.99689 17.5218 2.36251 17.5218C2.72814 17.5218 3.00939 17.2405 3.00939 16.8749V14.5405C3.00939 12.2343 4.89376 10.3218 7.22814 10.3218H10.8563C13.1625 10.3218 15.075 12.2062 15.075 14.5405V16.8749C15.075 17.2124 15.3563 17.5218 15.7219 17.5218C16.0875 17.5218 16.3688 17.2405 16.3688 16.8749V14.5405C16.2844 11.5312 13.8375 9.05615 10.8281 9.05615Z" fill="#DEE4EE"/>
</svg>
